# xmcd
#
# Track frame offsets: 
#        150
#        34463
#        61722
#        83306
#        113474
#        123274
#        153158
#        180069
#
# Disc length: 2798 seconds
#
# Revision: 0
# Processed by: cddbd v1.5.2PL0 Copyright (c) Steve Scherf et al.
# Submitted via: ExactAudioCopy v1.0b3
#
DISCID=480aec08
DTITLE=Shores - Leavening
DYEAR=2012
DGENRE=Alternative
TTITLE0=Chardonnay
TTITLE1=Broderick
TTITLE2=Weak Trees
TTITLE3=Hinges
TTITLE4=Greater Than
TTITLE5=Windswept
TTITLE6=Escarole
TTITLE7=Chagrin
EXTD=
EXTT0=
EXTT1=
EXTT2=
EXTT3=
EXTT4=
EXTT5=
EXTT6=
EXTT7=
PLAYORDER=
